<svg width="100" height="100" viewBox="0 0 100 100" xmlns="http://www.w3.org/2000/svg">

  <!-- Barber pole + tijeras centrado -->
  <g transform="translate(50, 50)">
    <!-- Poste -->
    <rect x="-10" y="-28" width="20" height="56" fill="#000000"/>
    <!-- Franjas diagonales -->
    <path d="M -10,-28 L -10,-10 L 10,8 L 10,-10 Z" fill="white" opacity="0.35"/>
    <path d="M -10,8 L -10,28 L 10,8 L 10,-10 Z" fill="white" opacity="0.35"/>
    <!-- Sombreretes -->
    <ellipse cx="0" cy="-28" rx="10" ry="3" fill="#000000"/>
    <ellipse cx="0" cy="28" rx="10" ry="3" fill="#000000"/>

    <!-- Tijeras izq -->
    <g transform="translate(-18, 0)">
      <path d="M 0,-12 Q -4,-8 0,-4 L 4,-12 Q 0,-16 0,-12" fill="#000000"/>
      <circle cx="2" cy="-8" r="2" fill="#000000"/>
    </g>

    <!-- Tijeras der -->
    <g transform="translate(18, 0)">
      <path d="M 0,-12 Q 4,-8 0,-4 L -4,-12 Q 0,-16 0,-12" fill="#000000"/>
      <circle cx="-2" cy="-8" r="2" fill="#000000"/>
    </g>
  </g>

</svg>
