<svg width="300" height="70" viewBox="0 0 320 100" xmlns="http://www.w3.org/2000/svg">
  <!-- Importa Playfair Display dentro del SVG -->
  <style>
    text {
      font-family: 'Playfair Display', serif;
      font-weight: 700;
    }
  </style>

  <!-- Barber pole icon -->
  <g transform="translate(0, 50)">
    <rect x="-15" y="-30" width="30" height="60" fill="#D4AF37"/>
    <path d="M -15,-30 L -15,-10 L 15,10 L 15,-10 Z" fill="white" opacity="0.3"/>
    <path d="M -15,10 L -15,30 L 15,10 L 15,-10 Z" fill="white" opacity="0.3"/>
    <ellipse cx="0" cy="-30" rx="15" ry="3" fill="#D4AF37"/>
    <ellipse cx="0" cy="30" rx="15" ry="3" fill="#D4AF37"/>

    <!-- Scissors -->
    <g transform="translate(-25, 0)">
      <path d="M 0,-15 Q -5,-10 0,-5 L 5,-15 Q 0,-20 0,-15" fill="#D4AF37"/>
      <circle cx="2.5" cy="-10" r="2" fill="#D4AF37"/>
    </g>
    <g transform="translate(25, 0)">
      <path d="M 0,-15 Q 5,-10 0,-5 L -5,-15 Q 0,-20 0,-15" fill="#D4AF37"/>
      <circle cx="-2.5" cy="-10" r="2" fill="#D4AF37"/>
    </g>
  </g>

  <!-- Logo text -->
  <text x="50" y="60" font-size="36" fill="white" letter-spacing="1">
    Barbería Central
  </text>
</svg>
